HIERARCHY
ROOT Hips
{
	OFFSET 0.000000 0.000000 0.000000
	CHANNELS 6 Xposition Yposition Zposition Xrotation Yrotation Zrotation
	JOINT Spine
	{
		OFFSET 0.000000 0.049001 0.073502
		CHANNELS 3 Xrotation Yrotation Zrotation
		JOINT Spine1
		{
			OFFSET 0.000000 0.017018 0.096514
			CHANNELS 3 Xrotation Yrotation Zrotation
			JOINT Spine2
			{
				OFFSET 0.000000 0.008542 0.097630
				CHANNELS 3 Xrotation Yrotation Zrotation
				JOINT Spine3
				{
					OFFSET 0.000000 0.000000 0.098003
					CHANNELS 3 Xrotation Yrotation Zrotation
					JOINT Neck
					{
						OFFSET 0.000000 -0.036751 0.257258
						CHANNELS 3 Xrotation Yrotation Zrotation
						JOINT Head
						{
							OFFSET 0.000000 -0.023400 0.132707
							CHANNELS 3 Xrotation Yrotation Zrotation
							End Site
							{
								OFFSET 0.000000 0.000000 0.000000
							}
						}
					}
					JOINT RightShoulder
					{
						OFFSET -0.030410 -0.050683 0.164214
						CHANNELS 3 Xrotation Yrotation Zrotation
						JOINT RightArm
						{
							OFFSET -0.151036 0.000000 0.000000
							CHANNELS 3 Xrotation Yrotation Zrotation
							JOINT RightForeArm
							{
								OFFSET -0.279942 0.000000 0.000000
								CHANNELS 3 Xrotation Yrotation Zrotation
								JOINT RightHand
								{
									OFFSET -0.265034 0.000000 0.000000
									CHANNELS 3 Xrotation Yrotation Zrotation
									JOINT RightHandEnd
									{
										OFFSET -0.071866 0.000000 0.000000
										CHANNELS 3 Xrotation Yrotation Zrotation
										End Site
										{
											OFFSET 0.000000 0.000000 0.000000
										}
									}
									JOINT RightHandThumb1
									{
										OFFSET -0.028746 -0.047911 -0.019164
										CHANNELS 3 Xrotation Yrotation Zrotation
										End Site
										{
											OFFSET 0.000000 0.000000 0.000000
										}
									}
								}
							}
						}
					}
					JOINT LeftShoulder
					{
						OFFSET 0.030410 -0.050683 0.164214
						CHANNELS 3 Xrotation Yrotation Zrotation
						JOINT LeftArm
						{
							OFFSET 0.151036 0.000000 0.000000
							CHANNELS 3 Xrotation Yrotation Zrotation
							JOINT LeftForeArm
							{
								OFFSET 0.279942 0.000000 0.000000
								CHANNELS 3 Xrotation Yrotation Zrotation
								JOINT LeftHand
								{
									OFFSET 0.265034 0.000000 0.000000
									CHANNELS 3 Xrotation Yrotation Zrotation
									JOINT LeftHandEnd
									{
										OFFSET 0.071866 0.000000 0.000000
										CHANNELS 3 Xrotation Yrotation Zrotation
										End Site
										{
											OFFSET 0.000000 0.000000 0.000000
										}
									}
									JOINT LeftHandThumb1
									{
										OFFSET 0.028746 -0.047911 -0.019164
										CHANNELS 3 Xrotation Yrotation Zrotation
										End Site
										{
											OFFSET 0.000000 0.000000 0.000000
										}
									}
								}
							}
						}
					}
				}
			}
		}
	}
	JOINT RightUpLeg
	{
		OFFSET -0.090216 0.000000 -0.026355
		CHANNELS 3 Xrotation Yrotation Zrotation
		JOINT RightLeg
		{
			OFFSET 0.000000 0.000000 -0.402871
			CHANNELS 3 Xrotation Yrotation Zrotation
			JOINT RightFoot
			{
				OFFSET 0.000000 0.000000 -0.414145
				CHANNELS 3 Xrotation Yrotation Zrotation
				JOINT RightToeBase
				{
					OFFSET 0.000000 -0.146359 -0.053270
					CHANNELS 3 Xrotation Yrotation Zrotation
					End Site
					{
						OFFSET 0.000000 0.000000 0.000000
					}
				}
			}
		}
	}
	JOINT LeftUpLeg
	{
		OFFSET 0.090216 0.000000 -0.026355
		CHANNELS 3 Xrotation Yrotation Zrotation
		JOINT LeftLeg
		{
			OFFSET 0.000000 0.000000 -0.402871
			CHANNELS 3 Xrotation Yrotation Zrotation
			JOINT LeftFoot
			{
				OFFSET 0.000000 0.000000 -0.414145
				CHANNELS 3 Xrotation Yrotation Zrotation
				JOINT LeftToeBase
				{
					OFFSET 0.000000 -0.146359 -0.053270
					CHANNELS 3 Xrotation Yrotation Zrotation
					End Site
					{
						OFFSET 0.000000 0.000000 0.000000
					}
				}
			}
		}
	}
}
MOTION
Frames: 4
Frame Time: 0.033333
-0.393626 -0.604647 0.928715 -0.505400 -6.581100 90.462700 3.369100 -0.014100 0.434700 -0.504100 -0.316400 -0.036800 8.392500 -0.234400 -1.134100 3.037600 -0.029200 -0.317100 8.672900 -0.076300 -1.769400 4.965500 -0.087200 -1.528000 2.784300 4.501300 -4.236400 -12.174000 -19.182900 8.821800 0.000000 0.000000 -1.835100 -18.885200 12.979400 -2.260400 0.000000 0.000000 0.000000 0.000000 0.000000 0.000000 3.707000 -8.651100 7.254200 8.328600 7.681900 -14.831500 0.000000 0.000000 0.596900 -18.080900 -6.456600 1.299400 0.000000 0.000000 0.000000 0.000000 0.000000 0.000000 7.881200 -2.620000 -37.377000 4.138100 0.000000 0.000000 0.647300 5.435500 7.453800 -8.591700 0.000000 0.000000 6.981800 -1.388000 35.272800 7.789900 0.000000 0.000000 -1.255000 -2.528800 -10.656500 -10.367500 0.000000 0.000000 
-0.393515 -0.604883 0.928708 -0.494200 -6.585300 90.502200 3.364500 -0.006400 0.433500 -0.503300 -0.307000 -0.036300 8.398300 -0.239300 -1.138400 3.040800 -0.024500 -0.325600 8.682900 -0.102600 -1.779200 4.972000 -0.091800 -1.524700 2.774600 4.495000 -4.245700 -12.166300 -19.176900 8.822000 0.000000 0.000000 -1.861400 -18.877600 12.959300 -2.291100 0.000000 0.000000 0.000000 0.000000 0.000000 0.000000 3.706200 -8.629600 7.253800 8.398400 7.618100 -14.827300 0.000000 0.000000 0.559400 -18.103400 -6.464500 1.292200 0.000000 0.000000 0.000000 0.000000 0.000000 0.000000 7.893400 -2.629900 -37.381800 4.143600 0.000000 0.000000 0.628300 5.460900 7.435900 -8.621900 0.000000 0.000000 6.992400 -1.383100 35.119000 7.767300 0.000000 0.000000 -1.231900 -2.502900 -10.530400 -10.410600 0.000000 0.000000 
-0.393355 -0.605274 0.928675 -0.478300 -6.590000 90.550500 3.367900 0.007000 0.431600 -0.504800 -0.304000 -0.035500 8.395000 -0.228800 -1.141600 3.043300 -0.024100 -0.331700 8.699800 -0.138000 -1.784500 4.990600 -0.089300 -1.532600 2.755100 4.480900 -4.265800 -12.170500 -19.180900 8.813400 0.000000 0.000000 -1.895200 -18.866500 12.913200 -2.309600 0.000000 0.000000 0.000000 0.000000 0.000000 0.000000 3.713700 -8.601400 7.252600 8.516300 7.546100 -14.824000 0.000000 0.000000 0.482700 -18.172900 -6.554400 1.292800 0.000000 0.000000 0.000000 0.000000 0.000000 0.000000 7.906000 -2.643800 -37.388500 4.160400 0.000000 0.000000 0.591700 5.507600 7.420400 -8.677600 0.000000 0.000000 7.003000 -1.379200 34.900800 7.743900 0.000000 0.000000 -1.210100 -2.478400 -10.340700 -10.421400 0.000000 0.000000 
-0.393233 -0.605704 0.928634 -0.465800 -6.594600 90.580700 3.385300 0.018300 0.426000 -0.501200 -0.303600 -0.034700 8.373900 -0.211900 -1.139700 3.043300 -0.023900 -0.340300 8.716600 -0.154000 -1.772400 5.008800 -0.087700 -1.542200 2.734000 4.472600 -4.285000 -12.167000 -19.219600 8.816500 0.000000 0.000000 -1.927300 -18.838500 12.856800 -2.315400 0.000000 0.000000 0.000000 0.000000 0.000000 0.000000 3.720900 -8.590100 7.254500 8.621700 7.530100 -14.820800 0.000000 0.000000 0.430800 -18.229400 -6.675600 1.334200 0.000000 0.000000 0.000000 0.000000 0.000000 0.000000 7.903200 -2.652300 -37.374500 4.206300 0.000000 0.000000 0.544600 5.547600 7.392500 -8.726000 0.000000 0.000000 7.000700 -1.383200 34.637700 7.746000 0.000000 0.000000 -1.202300 -2.456700 -10.098600 -10.377500 0.000000 0.000000 
